<svg preserveAspectRatio="none" width="100%" height="100%" overflow="visible" style="display: block;" viewBox="0 0 27 22" fill="none" xmlns="http://www.w3.org/2000/svg">
<g id="simbol">
<path id="&#237;&#140;&#168;&#236;&#138;&#164; 66" d="M26.1833 21.9936H19.2264C19.0866 21.9936 18.9525 21.9382 18.8535 21.8396C18.7545 21.7409 18.6987 21.6071 18.6983 21.4674V6.50615C18.6983 6.36619 18.7539 6.23195 18.8529 6.13298C18.952 6.03401 19.0863 5.97841 19.2264 5.97841H26.1833C26.3233 5.97841 26.4577 6.03401 26.5567 6.13298C26.6558 6.23195 26.7114 6.36619 26.7114 6.50615V21.4674C26.7114 21.6074 26.6558 21.7416 26.5567 21.8406C26.4577 21.9396 26.3233 21.9952 26.1833 21.9952" fill="var(--fill-0, #11C5D4)"/>
<path id="&#237;&#140;&#168;&#236;&#138;&#164; 67" d="M0 14.1528V21.5825C0 21.6912 0.0432211 21.7955 0.120155 21.8723C0.197089 21.9492 0.301434 21.9924 0.410236 21.9924H7.6033C7.7121 21.9924 7.81644 21.9492 7.89338 21.8723C7.97031 21.7955 8.01353 21.6912 8.01353 21.5825V6.96705C8.01356 6.88592 7.9895 6.80662 7.9444 6.73917C7.8993 6.67172 7.83519 6.61915 7.76018 6.58813C7.68517 6.55711 7.60263 6.54902 7.52302 6.5649C7.44341 6.58077 7.3703 6.61989 7.31295 6.67731L0.119884 13.865C0.0433376 13.9421 0.000384994 14.0462 0.000398285 14.1548" fill="var(--fill-0, #11C5D4)"/>
<path id="&#237;&#140;&#168;&#236;&#138;&#164; 68" d="M2.38787 13.9879H6.42889C6.46632 13.9878 6.50218 13.9729 6.52861 13.9464C6.55504 13.9199 6.56988 13.884 6.56988 13.8466V9.80903C6.56988 9.78108 6.56159 9.75377 6.54605 9.73054C6.53051 9.70731 6.50843 9.6892 6.4826 9.67851C6.45676 9.66782 6.42834 9.66502 6.40091 9.67047C6.37349 9.67592 6.3483 9.68937 6.32852 9.70913L2.2879 13.7468C2.26799 13.7665 2.25441 13.7917 2.24888 13.8192C2.24334 13.8466 2.24611 13.8751 2.25683 13.901C2.26754 13.9269 2.28573 13.9491 2.30906 13.9646C2.33239 13.9801 2.35983 13.9884 2.38787 13.9883" fill="var(--fill-0, #CFF3F6)"/>
<path id="&#237;&#140;&#168;&#236;&#138;&#164; 69" d="M25.1018 20.758H20.3076C20.2349 20.758 20.1652 20.7292 20.1138 20.6778C20.0624 20.6265 20.0336 20.5568 20.0336 20.4842V15.6936C20.0337 15.621 20.0626 15.5514 20.1139 15.5001C20.1653 15.4488 20.2349 15.4199 20.3076 15.4198H25.1018C25.1744 15.4198 25.2441 15.4486 25.2955 15.5C25.3469 15.5513 25.3758 15.621 25.3758 15.6936V20.4842C25.3758 20.5568 25.3469 20.6265 25.2955 20.6778C25.2441 20.7292 25.1744 20.758 25.1018 20.758Z" fill="var(--fill-0, #CFF3F6)"/>
<path id="&#237;&#140;&#168;&#236;&#138;&#164; 70" d="M22.0441 12.8981H20.3076C20.2716 12.8981 20.236 12.891 20.2027 12.8773C20.1695 12.8635 20.1393 12.8434 20.1138 12.8179C20.0884 12.7925 20.0682 12.7623 20.0544 12.7291C20.0406 12.6959 20.0336 12.6603 20.0336 12.6243V10.8891C20.0337 10.8165 20.0626 10.7469 20.1139 10.6956C20.1653 10.6442 20.2349 10.6154 20.3076 10.6152H22.0441C22.0801 10.6152 22.1157 10.6223 22.149 10.6361C22.1822 10.6499 22.2124 10.67 22.2379 10.6954C22.2633 10.7209 22.2835 10.7511 22.2973 10.7843C22.311 10.8175 22.3181 10.8531 22.3181 10.8891V12.6243C22.3181 12.6603 22.311 12.6959 22.2973 12.7291C22.2835 12.7623 22.2633 12.7925 22.2379 12.8179C22.2124 12.8434 22.1822 12.8635 22.149 12.8773C22.1157 12.891 22.0801 12.8981 22.0441 12.8981Z" fill="var(--fill-0, #CFF3F6)"/>
<path id="&#237;&#140;&#168;&#236;&#138;&#164; 71" d="M25.1025 12.8981H23.366C23.33 12.8981 23.2943 12.891 23.2611 12.8773C23.2279 12.8635 23.1976 12.8434 23.1722 12.8179C23.1468 12.7925 23.1266 12.7623 23.1128 12.7291C23.099 12.6959 23.0919 12.6603 23.0919 12.6243V10.8891C23.092 10.8165 23.121 10.7469 23.1723 10.6956C23.2237 10.6442 23.2933 10.6154 23.366 10.6152H25.1025C25.1752 10.6152 25.2449 10.6441 25.2963 10.6954C25.3476 10.7468 25.3765 10.8164 25.3765 10.8891V12.6243C25.3765 12.6603 25.3694 12.6959 25.3557 12.7291C25.3419 12.7623 25.3217 12.7925 25.2963 12.8179C25.2708 12.8434 25.2406 12.8635 25.2074 12.8773C25.1741 12.891 25.1385 12.8981 25.1025 12.8981Z" fill="var(--fill-0, #CFF3F6)"/>
<path id="&#237;&#140;&#168;&#236;&#138;&#164; 72" d="M22.0441 9.6955H20.3076C20.2349 9.6955 20.1652 9.66666 20.1138 9.6153C20.0624 9.56395 20.0336 9.49431 20.0336 9.42169V7.68605C20.0337 7.61346 20.0626 7.54387 20.1139 7.49254C20.1653 7.44122 20.2349 7.41233 20.3076 7.41223H22.0441C22.0801 7.41223 22.1157 7.41931 22.149 7.43307C22.1822 7.44683 22.2124 7.467 22.2379 7.49243C22.2633 7.51785 22.2835 7.54804 22.2973 7.58126C22.311 7.61448 22.3181 7.65009 22.3181 7.68605V9.42129C22.3181 9.45725 22.311 9.49285 22.2973 9.52607C22.2835 9.55929 22.2633 9.58948 22.2379 9.61491C22.2124 9.64033 22.1822 9.6605 22.149 9.67426C22.1157 9.68802 22.0801 9.69511 22.0441 9.69511" fill="var(--fill-0, #CFF3F6)"/>
<path id="&#237;&#140;&#168;&#236;&#138;&#164; 73" d="M25.1025 9.6955C24.4243 9.6955 23.366 9.6955 23.366 9.6955C23.2933 9.6955 23.2236 9.66665 23.1722 9.6153C23.1208 9.56395 23.0919 9.49431 23.0919 9.42169V7.68605C23.092 7.61346 23.121 7.54387 23.1723 7.49254C23.2237 7.44122 23.2933 7.41233 23.366 7.41223H25.1025C25.1752 7.41223 25.2449 7.44108 25.2963 7.49243C25.3476 7.54378 25.3765 7.61343 25.3765 7.68605V9.42129C25.3765 9.49391 25.3476 9.56356 25.2963 9.61491C25.2449 9.66626 25.1752 9.6955 25.1025 9.6955Z" fill="var(--fill-0, #CFF3F6)"/>
<path id="&#237;&#140;&#168;&#236;&#138;&#164; 74" d="M6.41148 18.8639H1.6177C1.54502 18.8639 1.47532 18.8351 1.42393 18.7837C1.37255 18.7324 1.34368 18.6627 1.34368 18.5901V18.0162C1.34368 17.9436 1.37255 17.8739 1.42393 17.8226C1.47532 17.7712 1.54502 17.7424 1.6177 17.7424H6.41148C6.48415 17.7424 6.55385 17.7712 6.60524 17.8226C6.65663 17.8739 6.6855 17.9436 6.6855 18.0162V18.5897C6.6855 18.6623 6.65663 18.732 6.60524 18.7833C6.55385 18.8347 6.48415 18.8635 6.41148 18.8635" fill="var(--fill-0, #CFF3F6)"/>
<path id="&#237;&#140;&#168;&#236;&#138;&#164; 75" d="M6.41148 16.9693H1.6177C1.54502 16.9693 1.47532 16.9405 1.42393 16.8891C1.37255 16.8378 1.34368 16.7681 1.34368 16.6955V16.1212C1.34368 16.0486 1.37255 15.979 1.42393 15.9276C1.47532 15.8763 1.54502 15.8474 1.6177 15.8474H6.41148C6.48415 15.8474 6.55385 15.8763 6.60524 15.9276C6.65663 15.979 6.6855 16.0486 6.6855 16.1212V16.6947C6.6855 16.7674 6.65663 16.837 6.60524 16.8884C6.55385 16.9397 6.48415 16.9686 6.41148 16.9686" fill="var(--fill-0, #CFF3F6)"/>
<path id="&#237;&#140;&#168;&#236;&#138;&#164; 76" d="M6.41148 20.7505H1.6177C1.54502 20.7505 1.47532 20.7217 1.42393 20.6703C1.37255 20.619 1.34368 20.5493 1.34368 20.4767V19.9028C1.34368 19.8302 1.37255 19.7605 1.42393 19.7092C1.47532 19.6578 1.54502 19.629 1.6177 19.629H6.41148C6.48415 19.629 6.55385 19.6578 6.60524 19.7092C6.65663 19.7605 6.6855 19.8302 6.6855 19.9028V20.4763C6.6855 20.5489 6.65663 20.6186 6.60524 20.6699C6.55385 20.7213 6.48415 20.7505 6.41148 20.7505Z" fill="var(--fill-0, #CFF3F6)"/>
<path id="&#237;&#140;&#168;&#236;&#138;&#164; 77" d="M15.6461 1.7231H13.354V0.184467H15.6461C15.6884 0.184467 15.7289 0.20124 15.7588 0.231095C15.7886 0.26095 15.8054 0.301442 15.8054 0.343664V1.5639C15.8054 1.60613 15.7886 1.64662 15.7588 1.67647C15.7289 1.70633 15.6884 1.7231 15.6461 1.7231Z" fill="var(--fill-0, #11C5D4)"/>
<path id="&#237;&#140;&#168;&#236;&#138;&#164; 78" d="M13.2361 2.54356C13.1881 2.54356 13.1421 2.52453 13.1082 2.49064C13.0743 2.45675 13.0552 2.4108 13.0552 2.36287V0.180688C13.0552 0.132767 13.0743 0.0868079 13.1082 0.0529223C13.1421 0.0190367 13.1881 0 13.2361 0C13.284 0 13.33 0.0190367 13.3639 0.0529223C13.3978 0.0868079 13.4169 0.132767 13.4169 0.180688V2.36287C13.4169 2.4108 13.3978 2.45675 13.3639 2.49064C13.33 2.52453 13.284 2.54356 13.2361 2.54356Z" fill="var(--fill-0, #11C5D4)"/>
<path id="&#237;&#140;&#168;&#236;&#138;&#164; 79" d="M16.7376 21.991H9.98262C9.81572 21.991 9.65566 21.9248 9.53764 21.8069C9.41963 21.6889 9.35333 21.529 9.35333 21.3622V6.35994C9.35333 5.83416 9.45696 5.31352 9.65832 4.82776C9.85968 4.34199 10.1548 3.90062 10.5269 3.52883C10.8989 3.15705 11.3406 2.86213 11.8268 2.66092C12.3129 2.45971 12.8339 2.35615 13.3601 2.35615C13.8863 2.35615 14.4073 2.45971 14.8934 2.66092C15.3795 2.86213 15.8212 3.15705 16.1933 3.52883C16.5654 3.90062 16.8605 4.34199 17.0619 4.82776C17.2632 5.31352 17.3669 5.83416 17.3669 6.35994V21.3642C17.3669 21.531 17.3006 21.6909 17.1825 21.8089C17.0645 21.9268 16.9045 21.993 16.7376 21.993" fill="var(--fill-0, #CFF3F6)"/>
<path id="&#237;&#140;&#168;&#236;&#138;&#164; 80" d="M16.0312 6.29159C16.0312 6.81954 15.8746 7.33562 15.581 7.77459C15.2875 8.21356 14.8703 8.55569 14.3822 8.75773C13.8941 8.95976 13.357 9.01263 12.8388 8.90963C12.3206 8.80663 11.8446 8.5524 11.471 8.17909C11.0974 7.80578 10.843 7.33015 10.7399 6.81235C10.6369 6.29455 10.6898 5.75784 10.892 5.27009C11.0941 4.78233 11.4365 4.36544 11.8758 4.07213C12.3151 3.77882 12.8316 3.62227 13.3599 3.62227C13.7107 3.62221 14.0581 3.69122 14.3823 3.82535C14.7064 3.95948 15.0009 4.1561 15.2489 4.40398C15.497 4.65186 15.6938 4.94614 15.828 5.27002C15.9622 5.5939 16.0313 5.94104 16.0312 6.29159Z" fill="var(--fill-0, #11C5D4)"/>
<path id="&#237;&#140;&#168;&#236;&#138;&#164; 81" d="M15.7568 17.8825H10.9626C10.89 17.8825 10.8203 17.8537 10.7689 17.8023C10.7175 17.751 10.6886 17.6813 10.6886 17.6087V17.0352C10.6886 16.9626 10.7175 16.8929 10.7689 16.8416C10.8203 16.7902 10.89 16.7614 10.9626 16.7614H15.7568C15.8295 16.7614 15.8992 16.7902 15.9506 16.8416C16.002 16.8929 16.0308 16.9626 16.0308 17.0352V17.6087C16.0308 17.6813 16.002 17.751 15.9506 17.8023C15.8992 17.8537 15.8295 17.8825 15.7568 17.8825Z" fill="var(--fill-0, #11C5D4)"/>
<path id="&#237;&#140;&#168;&#236;&#138;&#164; 82" d="M16.0308 22H10.6886V19.1715C10.6886 19.1094 10.7008 19.0478 10.7245 18.9904C10.7483 18.933 10.7831 18.8808 10.8271 18.8369C10.871 18.7929 10.9232 18.7581 10.9806 18.7343C11.0381 18.7105 11.0996 18.6983 11.1618 18.6983H15.5577C15.6198 18.6983 15.6814 18.7105 15.7388 18.7343C15.7963 18.7581 15.8484 18.7929 15.8924 18.8369C15.9363 18.8808 15.9712 18.933 15.9949 18.9904C16.0187 19.0478 16.0309 19.1094 16.0308 19.1715V22Z" fill="var(--fill-0, #11C5D4)"/>
<path id="&#237;&#140;&#168;&#236;&#138;&#164; 83" d="M14.3434 6.47531H13.3612C13.3374 6.47537 13.3139 6.47073 13.2919 6.46167C13.2699 6.45262 13.2499 6.43932 13.2331 6.42253C13.2162 6.40575 13.2029 6.38581 13.1938 6.36386C13.1847 6.34192 13.18 6.31839 13.18 6.29463V4.37312C13.18 4.3252 13.199 4.27924 13.2329 4.24536C13.2668 4.21147 13.3128 4.19244 13.3608 4.19244C13.4088 4.19244 13.4547 4.21147 13.4887 4.24536C13.5226 4.27924 13.5416 4.3252 13.5416 4.37312V6.11394H14.3434C14.3898 6.11612 14.4336 6.13609 14.4657 6.16969C14.4978 6.2033 14.5157 6.24797 14.5157 6.29443C14.5157 6.34088 14.4978 6.38555 14.4657 6.41916C14.4336 6.45277 14.3898 6.47313 14.3434 6.47531Z" fill="var(--fill-0, #CFF3F6)"/>
</g>
</svg>
