<svg fill="none" viewBox="0 0 36 36"><path fill="currentColor" d="M18 12.659c-2.544 0-4.615 2.077-4.615 4.63s2.07 4.63 4.615 4.63 4.617-2.076 4.617-4.63-2.071-4.63-4.617-4.63"/><path fill="currentColor" d="M27.032 12.852a.893.893 0 0 1-.891-.895.893.893 0 1 1 1.783 0 .893.893 0 0 1-.892.895M18 22.794c-3.025 0-5.487-2.469-5.487-5.505s2.462-5.504 5.487-5.504 5.488 2.47 5.488 5.504c0 3.036-2.462 5.505-5.488 5.505m10.37-14.56h-4.23l-1.68-3.01A.44.44 0 0 0 22.08 5h-8.157a.44.44 0 0 0-.38.224l-1.68 3.01h-4.23a2.625 2.625 0 0 0-2.616 2.625V23.72a2.625 2.625 0 0 0 2.617 2.626H28.37a2.625 2.625 0 0 0 2.617-2.626V10.86a2.625 2.625 0 0 0-2.617-2.626"/></svg>