<svg fill="none" viewBox="0 0 96 97"><path stroke="#11c5d4" stroke-width="2" d="M1 48.507C1 35.347 3.158 23.48 6.61 14.94c1.728-4.272 3.76-7.663 5.965-9.97 2.203-2.304 4.51-3.463 6.83-3.463s4.629 1.158 6.831 3.463c2.205 2.307 4.237 5.698 5.964 9.97 3.453 8.54 5.61 20.408 5.61 33.567s-2.157 25.026-5.61 33.566c-1.727 4.273-3.759 7.664-5.964 9.97-2.202 2.305-4.511 3.464-6.83 3.464s-4.628-1.159-6.83-3.463c-2.206-2.307-4.238-5.698-5.966-9.97C3.158 73.532 1 61.665 1 48.506Zm37.791 0c0-13.156 2.215-25.02 5.757-33.558 1.772-4.27 3.857-7.662 6.12-9.97 2.261-2.304 4.64-3.472 7.039-3.472s4.778 1.168 7.038 3.472c2.264 2.308 4.35 5.7 6.121 9.97 3.543 8.538 5.757 20.402 5.757 33.558s-2.214 25.02-5.757 33.558c-1.772 4.27-3.857 7.661-6.12 9.97-2.261 2.303-4.64 3.472-7.039 3.472s-4.778-1.169-7.038-3.473c-2.264-2.308-4.349-5.699-6.121-9.97-3.543-8.537-5.757-20.401-5.757-33.557Z"/><path stroke="#11c5d4" stroke-width="2" d="M19.592 48.507c0-13.158 2.168-25.025 5.638-33.565 1.735-4.272 3.777-7.663 5.993-9.97 2.213-2.305 4.534-3.465 6.869-3.465s4.656 1.16 6.869 3.465c2.216 2.307 4.257 5.698 5.993 9.97 3.47 8.54 5.638 20.407 5.638 33.565s-2.169 25.025-5.638 33.564c-1.736 4.273-3.777 7.664-5.993 9.971-2.213 2.304-4.535 3.465-6.87 3.465s-4.655-1.16-6.868-3.465c-2.216-2.307-4.258-5.698-5.993-9.97-3.47-8.54-5.638-20.407-5.638-33.565Zm38.598 0c0-13.16 2.157-25.026 5.61-33.567 1.727-4.272 3.76-7.663 5.965-9.97 2.202-2.304 4.51-3.463 6.83-3.463s4.628 1.158 6.83 3.463c2.206 2.307 4.237 5.698 5.965 9.97C92.842 23.48 95 35.348 95 48.507s-2.158 25.026-5.61 33.566c-1.728 4.273-3.76 7.664-5.964 9.97-2.203 2.305-4.511 3.464-6.831 3.464s-4.628-1.159-6.83-3.463c-2.205-2.307-4.238-5.698-5.965-9.97-3.453-8.541-5.61-20.408-5.61-33.567ZM19.406 1h56.175M18.383 96.002H76.6"/></svg>