<svg fill="none" viewBox="0 0 96 96"><path stroke="#11c5d4" stroke-width="2" d="M31 1c16.569 0 30 13.432 30 30 0 16.569-13.431 30-30 30C14.432 61 1 47.569 1 31 1 14.432 14.432 1 31 1Z"/><path stroke="#11c5d4" stroke-width="2" d="M31 35c16.569 0 30 13.432 30 30 0 16.569-13.431 30-30 30C14.432 95 1 81.569 1 65c0-16.568 13.432-30 30-30Z"/><path stroke="#11c5d4" stroke-width="2" d="M64 1c16.569 0 30 13.432 30 30 0 16.569-13.431 30-30 30-16.568 0-30-13.431-30-30C34 14.432 47.432 1 64 1Z"/><path stroke="#11c5d4" stroke-width="2" d="M65 35c16.569 0 30 13.432 30 30 0 16.569-13.431 30-30 30-16.568 0-30-13.431-30-30 0-16.568 13.432-30 30-30Z"/></svg>