<svg fill="none" viewBox="0 0 96 96"><path stroke="#11c5d4" stroke-width="2" d="M48 1c13.15 0 25.007 2.334 33.54 6.067 4.268 1.867 7.659 4.064 9.969 6.454C93.814 15.905 95 18.43 95 21s-1.186 5.095-3.491 7.48c-2.31 2.389-5.701 4.586-9.969 6.453C73.007 38.666 61.15 41 48 41s-25.007-2.334-33.54-6.067c-4.268-1.867-7.659-4.064-9.969-6.453C2.186 26.095 1 23.569 1 21s1.186-5.095 3.491-7.48c2.31-2.389 5.701-4.586 9.969-6.453C22.992 3.334 34.85 1 48 1Z"/><path stroke="#11c5d4" stroke-width="2" d="M48 37c13.15 0 25.007 2.334 33.54 6.067 4.268 1.867 7.659 4.064 9.969 6.453C93.814 51.906 95 54.432 95 57s-1.186 5.095-3.491 7.48c-2.31 2.389-5.701 4.586-9.969 6.453C73.007 74.666 61.15 77 48 77s-25.007-2.334-33.54-6.067c-4.268-1.867-7.659-4.064-9.969-6.454C2.186 62.096 1 59.57 1 57s1.186-5.095 3.491-7.48c2.31-2.389 5.701-4.586 9.969-6.453C22.992 39.334 34.85 37 48 37Z"/><path stroke="#11c5d4" stroke-width="2" d="M48 19c13.15 0 25.007 2.334 33.54 6.067 4.268 1.867 7.659 4.064 9.969 6.453C93.814 33.906 95 36.432 95 39s-1.186 5.095-3.491 7.48c-2.31 2.389-5.701 4.586-9.969 6.453C73.007 56.666 61.15 59 48 59s-25.007-2.334-33.54-6.067c-4.268-1.867-7.659-4.064-9.969-6.453C2.186 44.095 1 41.569 1 39s1.186-5.095 3.491-7.48c2.31-2.389 5.701-4.586 9.969-6.453C22.992 21.334 34.85 19 48 19Z"/><path stroke="#11c5d4" stroke-width="2" d="M48 55c13.15 0 25.007 2.334 33.54 6.067 4.268 1.867 7.659 4.064 9.969 6.453C93.814 69.906 95 72.432 95 75s-1.186 5.095-3.491 7.48c-2.31 2.389-5.701 4.586-9.969 6.453C73.007 92.666 61.15 95 48 95s-25.007-2.334-33.54-6.067c-4.268-1.867-7.659-4.064-9.969-6.454C2.186 80.096 1 77.57 1 75s1.186-5.095 3.491-7.48c2.31-2.389 5.701-4.586 9.969-6.453C22.992 57.334 34.85 55 48 55Z"/></svg>