<svg fill="none" viewBox="0 0 54 17"><path fill="#334443" d="M9.552 7.436a.866.866 0 0 1-.866-.866A2.59 2.59 0 0 0 6.09 3.93a2.597 2.597 0 0 0-2.595 2.64.865.865 0 0 1-1.732 0 4.32 4.32 0 0 1 2.671-3.994 4.33 4.33 0 0 1 5.653 2.34c.217.524.33 1.087.33 1.654a.865.865 0 0 1-.866.866m1.725 3.459H.893A.87.87 0 0 1 0 10.03a.865.865 0 0 1 .893-.865h10.383a.867.867 0 0 1 .824 1.202.865.865 0 0 1-.825.528"/><path fill="#334443" d="M6.081 14.352a.866.866 0 0 1-.866-.865v-3.459a.865.865 0 0 1 1.731 0v3.459a.865.865 0 0 1-.866.865m35.768-1.723a.866.866 0 0 1-.63-1.486.86.86 0 0 1 .63-.244 2.596 2.596 0 0 0 2.595-2.593 2.593 2.593 0 0 0-2.595-2.594.866.866 0 0 1 0-1.73 4.33 4.33 0 0 1 4.326 4.324 4.32 4.32 0 0 1-4.326 4.323m7.786 1.721a.866.866 0 0 1-.865-.865V3.111a.864.864 0 0 1 1.468-.595c.161.157.255.37.262.595v10.375a.865.865 0 0 1-.866.865m3.287-.001a.866.866 0 0 1-.866-.865V3.111a.865.865 0 0 1 1.73 0v10.375a.865.865 0 0 1-.865.865"/><path fill="#334443" d="M49.633 9.167h-2.075a.866.866 0 0 1 0-1.73h2.075a.866.866 0 0 1 0 1.73m-20.278 3.462a.866.866 0 0 1-.63-1.486.87.87 0 0 1 .63-.244 2.597 2.597 0 0 0 2.596-2.593 2.593 2.593 0 0 0-2.596-2.594.866.866 0 0 1 0-1.73 4.33 4.33 0 0 1 4.326 4.324 4.32 4.32 0 0 1-4.326 4.323m6.916 1.721a.866.866 0 0 1-.866-.865V3.111a.865.865 0 0 1 1.73 0v10.375a.865.865 0 0 1-.864.864"/><path fill="#334443" d="M39.042 9.167h-2.766a.866.866 0 1 1 0-1.73h2.765a.867.867 0 0 1 .63 1.487.87.87 0 0 1-.63.243M16.854 7.262a3.635 3.635 0 0 1-3.358-2.241A3.628 3.628 0 0 1 16.145.07a3.64 3.64 0 0 1 3.73 1.544 3.63 3.63 0 0 1-3.021 5.648m0-5.533a1.904 1.904 0 0 0-1.866 2.273 1.9 1.9 0 0 0 2.595 1.386 1.9 1.9 0 0 0 1.175-1.757 1.907 1.907 0 0 0-1.904-1.902m7.612 5.533a.866.866 0 0 1-.866-.865V.863a.865.865 0 0 1 1.73 0v5.534a.865.865 0 0 1-.864.865"/><path fill="#334443" d="M24.466 4.496h-1.384a.866.866 0 0 1 0-1.729h1.385a.866.866 0 0 1 0 1.73m-.001 9.685a.866.866 0 0 1-.866-.866v-3.46a.864.864 0 0 1 1.203-.824.865.865 0 0 1 .528.823v3.459a.865.865 0 0 1-.866.865m-4.847.003a.866.866 0 0 1-.866-.866v-3.46a.864.864 0 0 1 1.203-.824.87.87 0 0 1 .528.823v3.459a.865.865 0 0 1-.866.865"/><path fill="#334443" d="M22.04 16.595a3.293 3.293 0 0 1-3.288-3.285.863.863 0 0 1 .866-.892.866.866 0 0 1 .865.892 1.556 1.556 0 0 0 2.658 1.1c.292-.292.456-.687.456-1.1a.865.865 0 1 1 1.731 0 3.29 3.29 0 0 1-3.288 3.285"/><path fill="#334443" d="M24.467 13.142h-4.845a.866.866 0 0 1-.63-1.486.87.87 0 0 1 .63-.244h4.845a.866.866 0 0 1 .63 1.486.87.87 0 0 1-.63.244"/></svg>