<svg fill="none" viewBox="0 0 27 22"><path fill="#11c5d4" d="M26.183 21.994h-6.957a.53.53 0 0 1-.528-.526V6.506a.53.53 0 0 1 .528-.527h6.957a.53.53 0 0 1 .528.527v14.962a.53.53 0 0 1-.528.527M0 14.153v7.43a.41.41 0 0 0 .41.41h7.193a.41.41 0 0 0 .41-.41V6.966a.41.41 0 0 0-.7-.29L.12 13.865a.4.4 0 0 0-.12.29"/><path fill="#cff3f6" d="M2.388 13.988h4.04a.14.14 0 0 0 .142-.141V9.809a.141.141 0 0 0-.241-.1l-4.041 4.038a.142.142 0 0 0 .021.218q.035.023.079.023m22.714 6.77h-4.794a.274.274 0 0 1-.274-.274v-4.79a.274.274 0 0 1 .274-.274h4.794a.274.274 0 0 1 .274.274v4.79a.274.274 0 0 1-.274.274m-3.058-7.86h-1.736a.28.28 0 0 1-.253-.169.3.3 0 0 1-.021-.105V10.89a.274.274 0 0 1 .274-.274h1.736a.273.273 0 0 1 .274.274v1.735a.273.273 0 0 1-.274.274m3.058-.001h-1.736a.275.275 0 0 1-.274-.274V10.89a.274.274 0 0 1 .274-.274h1.736a.274.274 0 0 1 .274.274v1.735a.273.273 0 0 1-.274.274m-3.058-3.204h-1.736a.274.274 0 0 1-.274-.273V7.686a.274.274 0 0 1 .274-.274h1.736a.274.274 0 0 1 .274.274V9.42a.273.273 0 0 1-.274.274m3.058.001h-1.736a.274.274 0 0 1-.274-.273V7.686a.274.274 0 0 1 .274-.274h1.736a.274.274 0 0 1 .274.274V9.42a.274.274 0 0 1-.274.274m-18.69 9.17H1.618a.274.274 0 0 1-.274-.274v-.574a.274.274 0 0 1 .274-.274h4.794a.274.274 0 0 1 .274.274v.574a.274.274 0 0 1-.274.274m0-1.894H1.618a.274.274 0 0 1-.274-.274v-.575a.274.274 0 0 1 .274-.274h4.794a.274.274 0 0 1 .274.274v.574a.274.274 0 0 1-.274.274m0 3.781H1.618a.274.274 0 0 1-.274-.273v-.574a.274.274 0 0 1 .274-.274h4.794a.274.274 0 0 1 .274.274v.573a.274.274 0 0 1-.274.274"/><path fill="#11c5d4" d="M15.646 1.723h-2.292V.185h2.292a.16.16 0 0 1 .16.159v1.22a.16.16 0 0 1-.16.16"/><path fill="#11c5d4" d="M13.236 2.544a.18.18 0 0 1-.18-.181V.18a.18.18 0 1 1 .36 0v2.182a.18.18 0 0 1-.18.18"/><path fill="#cff3f6" d="M16.738 21.991H9.983a.63.63 0 0 1-.63-.629V6.36a4 4 0 0 1 2.474-3.699 4.01 4.01 0 0 1 5.54 3.699v15.004a.63.63 0 0 1-.63.63"/><path fill="#11c5d4" d="M16.031 6.292A2.668 2.668 0 0 1 12.84 8.91a2.672 2.672 0 0 1-1.947-3.64 2.67 2.67 0 0 1 3.49-1.445 2.67 2.67 0 0 1 1.65 2.467m-.276 11.591h-4.794a.274.274 0 0 1-.274-.274v-.574a.274.274 0 0 1 .274-.273h4.794a.274.274 0 0 1 .274.273v.574a.274.274 0 0 1-.274.274M16.03 22h-5.342v-2.828a.47.47 0 0 1 .474-.474h4.395a.473.473 0 0 1 .474.474z"/><path fill="#cff3f6" d="M14.344 6.475h-.983a.18.18 0 0 1-.18-.18V4.373a.18.18 0 1 1 .36 0v1.74h.803a.18.18 0 0 1 0 .362"/></svg>