<svg fill="none" viewBox="0 0 16 16"><path fill="currentColor" d="M3.359 6.026H.471l.219.22V1.913a3 3 0 0 1 .01-.162c.005-.065-.01.043.003-.02l.01-.058q.012-.059.03-.114.016-.056.036-.11c.022-.06-.018.038.008-.019l.025-.052a2 2 0 0 1 .13-.21c.036-.051-.03.03.011-.016l.037-.044a1 1 0 0 1 .08-.081q.041-.04.084-.076c.048-.04-.035.023.016-.013a1.4 1.4 0 0 1 .262-.153c.057-.027-.04.013.019-.008l.054-.02Q1.57.736 1.637.72L1.733.7c.064-.012-.044.004.02-.002l.061-.006a1.5 1.5 0 0 1 .242.003l.021.003.058.01A2 2 0 0 1 2.36.77c.006.002.065.027.02.007l.07.032q.101.052.195.118c.004.004.054.043.016.012l.044.036a1.2 1.2 0 0 1 .159.162c.004.005.043.054.014.015l.033.046q.071.102.123.215c.004.005.028.064.01.018l.02.054q.02.056.035.111.015.057.026.115l.003.02a2 2 0 0 1 .012.203v5.093q0 .497.004.995l.01 2.506.014 2.739.007 1.62v.079c0 .19.24.29.374.155l.78-.781.141-.14a1 1 0 0 1 .066-.062c.02-.015 0 0-.003.003l.025-.017.054-.031c.008-.005.054-.027.037-.02a.6.6 0 0 1 .117-.033l.03-.005c-.004 0-.035.002-.01.002q.065-.004.129-.001c.042.002-.021-.007.02.002l.058.013.067.022c.024.008-.002-.001-.006-.003a1 1 0 0 1 .09.048 1 1 0 0 1 .087.072l.06.058q.2.204.405.406a.886.886 0 0 0 1.073.133c.184-.111.332-.295.482-.445l.153-.154q.018-.018.04-.036l.024-.02c-.004.003-.024.017-.003.003a1 1 0 0 1 .115-.065c-.032.015.01-.003.022-.007l.058-.017.058-.011c-.044.007.027-.001.04-.001h.06c.015.001.059.008.02 0a1 1 0 0 1 .126.032l.029.01c-.005 0-.029-.013-.007-.002a1 1 0 0 1 .115.067c-.028-.02.02.017.029.025q.078.076.153.153c.148.148.291.317.462.44.34.244.82.184 1.114-.103q.196-.194.39-.389l.072-.072a.5.5 0 0 1 .07-.063c-.028.02.022-.013.03-.019l.064-.034c.036-.019-.017.003.022-.01a2 2 0 0 1 .125-.033c.024-.005-.005.001-.01.001l.03-.002.06-.002.06.003c.025.001-.006 0-.01-.001l.048.01q.03.006.058.015c.01.003.056.02.04.013s.029.015.037.02q.032.017.062.036c.032.02-.006-.009.023.016l.046.043.014.014.207.207c.18.18.345.37.6.444a.89.89 0 0 0 .914-.283l.22-.246.07-.075.058-.06c.01-.008.047-.036.018-.016q.029-.02.059-.037l.06-.032c-.032.016.006-.003.02-.008.04-.013.08-.02.12-.03.025-.007-.006 0-.01 0l.028-.001.058-.002c.019 0 .038.004.057.003a.6.6 0 0 1 .147.04c.025.009-.003-.002-.007-.003l.027.013q.03.015.06.034c.01.007.048.035.021.013l.066.06q.409.406.813.814l.084.084c.134.134.375.035.375-.155V1.919a2 2 0 0 0-.048-.44 1.63 1.63 0 0 0-.805-1.035 1.7 1.7 0 0 0-.788-.194H1.915c-.115 0-.225.101-.22.22a.224.224 0 0 0 .22.219h11.639q.04 0 .08.003c.014.001.086.009.04.003q.079.011.155.03.074.022.147.048c.04.014.01.003.001 0l.035.015a2 2 0 0 1 .206.118 1.5 1.5 0 0 1 .246.234c.005.005.028.037.013.015a1.4 1.4 0 0 1 .131.22c.007.014.031.075.016.036a1.4 1.4 0 0 1 .087.35q.004.04.005.08v13.126l.375-.155-.79-.79c-.16-.16-.323-.306-.55-.365a.98.98 0 0 0-.972.296l-.209.232-.088.098-.017.02-.053.05c0 .001-.027.022-.009.008l-.018.012-.051.03-.027.014c.003-.002.031-.012.007-.003a1 1 0 0 1-.093.027c-.005.002-.044.01-.018.005.023-.004-.028.002-.038.003h-.058c-.01 0-.061-.008-.038-.003.026.005-.006-.002-.01-.003l-.047-.012c-.008-.002-.057-.018-.038-.011.018.007-.028-.014-.036-.018l-.052-.031-.025-.017c.019.013.009.006-.003-.004l-.064-.062q-.203-.205-.407-.407a.98.98 0 0 0-1.096-.193c-.211.095-.371.29-.533.45l-.198.2-.01.01c-.01.01-.05.044-.04.037.016-.013-.011.007-.013.008l-.034.022-.054.028c.032-.016-.01.003-.022.008l-.058.016-.04.007c.022 0 .023-.004 0 0a1 1 0 0 1-.117-.002c.038.003-.006-.002-.021-.005l-.077-.023c-.037-.012.014.01-.02-.01L9 14.404c-.008-.006-.048-.035-.022-.014l-.048-.043-.153-.154c-.154-.153-.304-.335-.49-.452a.98.98 0 0 0-1.145.095c-.149.125-.279.275-.416.412l-.084.084-.014.014-.033.03s-.026.023-.009.01c.015-.013-.017.01-.02.012l-.053.031-.027.014c.004-.002.03-.011.006-.003a1 1 0 0 1-.095.029l-.02.004a1 1 0 0 1-.128-.002l.009.002-.078-.02c-.01-.002-.056-.02-.04-.013.017.007-.028-.016-.037-.02l-.052-.033.004.003-.032-.028-.053-.052-.232-.232c-.184-.185-.357-.371-.618-.446a.98.98 0 0 0-.958.258q-.421.417-.838.837l-.086.085.375.155-.005-1.184-.011-2.632-.013-2.701-.006-1.391V1.914A1.67 1.67 0 0 0 3.28.962C2.859.378 2.099.103 1.408.33A1.68 1.68 0 0 0 .252 1.914c-.004.608 0 1.218 0 1.827v2.504c0 .119.1.22.219.22h2.888c.115 0 .225-.101.22-.22a.223.223 0 0 0-.22-.219"/><path stroke="currentColor" stroke-linejoin="round" stroke-width=".5" d="M14.708 1.72a1.4 1.4 0 0 0-.084-.309c.015.039-.009-.022-.016-.035l-.035-.068a1.4 1.4 0 0 0-.096-.153c.015.022-.008-.01-.013-.015l-.048-.057a2 2 0 0 0-.173-.16c.032.025-.014-.01-.025-.017a1.3 1.3 0 0 0-.206-.118l-.035-.015c.008.003.038.014-.001 0q-.073-.027-.147-.047a1 1 0 0 0-.155-.03l-.04-.004-.08-.003H1.915a.223.223 0 0 1-.22-.22C1.69.351 1.8.25 1.916.25h11.599c.275 0 .544.064.788.194a1.63 1.63 0 0 1 .853 1.475v13.048c0 .19-.24.289-.375.155l-.084-.084q-.404-.409-.813-.814l-.066-.06c.027.022-.011-.006-.022-.012l-.06-.035-.026-.013a1 1 0 0 0-.15-.04c.004.001.034.002.01.003l-.057-.003-.058.002-.028.002c.004 0 .035-.008.01-.001-.04.01-.08.017-.12.03-.014.005-.052.024-.02.008l-.06.031-.06.038c.03-.02-.007.008-.017.016l-.059.06-.068.075-.22.246a.89.89 0 0 1-.916.283c-.254-.073-.42-.264-.6-.444l-.206-.207-.014-.014-.046-.043c-.03-.025.009.004-.023-.016q-.03-.019-.062-.036c-.008-.005-.053-.027-.037-.02s-.03-.01-.04-.013l-.058-.016-.048-.01c.004.002.035.003.01.002l-.06-.003-.06.002-.03.002c.005 0 .034-.006.01 0a2 2 0 0 0-.125.032c-.039.013.014-.009-.022.01q-.031.015-.063.034c-.01.006-.06.04-.031.02a1 1 0 0 0-.07.062l-.072.072q-.194.196-.39.39c-.293.286-.773.346-1.114.101-.17-.122-.314-.291-.462-.44q-.075-.077-.153-.152c-.008-.008-.057-.044-.03-.025a1 1 0 0 0-.114-.066c-.022-.012.002 0 .007.002q-.015-.007-.029-.01a1 1 0 0 0-.125-.032c.038.007-.006 0-.021 0l-.06-.001c-.013 0-.084.008-.04 0l-.058.012-.058.017c-.011.004-.054.022-.022.007a1 1 0 0 0-.115.065c-.02.014 0 0 .003-.003l-.025.02-.04.036-.152.154c-.15.15-.298.334-.482.445a.886.886 0 0 1-1.073-.133q-.205-.2-.406-.406l-.059-.058-.065-.058a1 1 0 0 0-.113-.062c.005.002.03.011.007.003a1 1 0 0 0-.125-.035c-.041-.009.022 0-.02-.002-.043-.003-.085 0-.128 0-.026.001.005 0 .008-.001l-.087.02-.038.011c-.006.002-.044.017-.021.007.017-.007-.03.015-.037.02l-.054.03-.025.018c.003-.002.023-.018.003-.003a1 1 0 0 0-.066.062l-.14.14-.78.78c-.135.135-.374.035-.375-.154v-.079l-.007-1.62-.013-2.74-.01-2.505q-.005-.498-.005-.995V1.935a2 2 0 0 0-.012-.203l-.003-.02-.026-.115-.035-.11-.02-.055c.018.046-.006-.013-.01-.018a1.4 1.4 0 0 0-.123-.215l-.033-.046c.029.04-.01-.01-.014-.015a1.2 1.2 0 0 0-.159-.162L2.66.94a1.5 1.5 0 0 0-.28-.162c.044.02-.015-.005-.02-.007a2 2 0 0 0-.226-.063l-.058-.01-.02-.003a1.5 1.5 0 0 0-.243-.003l-.06.006c-.065.006.043-.01-.021.003q-.049.008-.096.02-.067.015-.132.037l-.054.02c-.06.021.038-.02-.019.008a2 2 0 0 0-.262.153c-.05.036.032-.028-.016.013l-.085.076a1 1 0 0 0-.079.081l-.037.044c-.04.046.025-.035-.011.015a2 2 0 0 0-.13.211l-.025.052c-.026.057.014-.04-.008.019q-.02.054-.037.11-.016.055-.029.114l-.01.058c-.013.063.002-.045-.004.02a3 3 0 0 0-.009.162v4.331l-.22-.219H3.36c.123 0 .213.1.22.22.005.118-.105.219-.22.219H.471a.223.223 0 0 1-.22-.22V3.741c0-.61-.003-1.219 0-1.827A1.68 1.68 0 0 1 1.409.329C2.1.103 2.86.379 3.28.962c.196.275.297.615.3.952v3.762q-.002.69 0 1.383l.005 1.39.013 2.702.011 2.632.005 1.184-.375-.155.086-.085q.418-.42.838-.837a.98.98 0 0 1 .958-.258c.26.075.434.261.618.446l.232.232.053.052q.014.015.032.028l-.004-.003.052.033.038.02c-.017-.007.03.01.039.013l.078.02c.024.006-.006-.001-.01-.002l.089.004c.009 0 .061-.005.04-.002-.025.003.015-.003.02-.004a1 1 0 0 0 .095-.029c.023-.008-.002.001-.006.003l.027-.014.073-.044.01-.009.032-.03.014-.014.084-.084c.137-.137.267-.287.416-.412a.98.98 0 0 1 1.146-.095c.185.117.335.299.49.452l.152.154q.023.023.048.043c-.026-.021.014.008.022.014l.053.03c.035.02-.016-.002.021.01l.077.023c.015.003.059.008.02.005q.059.005.119.002M14.708 1.72c.006.035-.002-.035 0 0Zm0 0 .008.121v13.126l.375-.155-.79-.79c-.16-.16-.323-.306-.55-.365a.98.98 0 0 0-.972.296l-.209.232-.088.098-.017.02-.053.05c0 .001-.027.022-.009.008l-.018.012-.051.03-.027.014c.003-.002.031-.012.007-.003a1 1 0 0 1-.093.027c-.005.002-.044.01-.018.005.023-.004-.028.002-.038.003h-.058c-.01 0-.061-.008-.038-.003.026.005-.006-.002-.01-.003l-.047-.012c-.008-.002-.057-.018-.038-.011.018.007-.028-.014-.036-.018l-.052-.031-.025-.017c.019.013.009.006-.003-.004l-.064-.062q-.203-.205-.407-.407a.98.98 0 0 0-1.096-.193c-.211.095-.371.29-.533.45l-.198.2-.01.01c-.01.01-.05.044-.04.037.016-.013-.011.007-.013.008l-.034.022-.054.028c.032-.016-.01.003-.022.008l-.058.016-.04.007m0 0c.023-.004.022 0 0 0Z"/><path fill="currentColor" stroke="currentColor" stroke-linejoin="round" stroke-width=".5" d="M7.801 3.52h5.513c.113 0 .224-.102.218-.22a.22.22 0 0 0-.219-.22H7.802c-.115 0-.225.101-.22.22.007.119.097.22.22.22Zm-2.789 7.308h8.302c.113 0 .224-.101.218-.22a.22.22 0 0 0-.218-.219H5.012c-.115 0-.225.101-.22.22a.224.224 0 0 0 .22.219Zm2.789-5.141h5.513c.113 0 .224-.1.218-.22a.22.22 0 0 0-.219-.218H7.8c-.115 0-.225.1-.22.219.007.119.097.22.22.22Zm0 2.168h5.513c.113 0 .224-.1.218-.22a.22.22 0 0 0-.219-.218H7.802c-.115 0-.225.1-.22.219.007.119.097.22.22.22ZM6.747 4.802c0-.334-.165-.636-.43-.833a1.02 1.02 0 0 0-.911-.14 1.05 1.05 0 0 0-.66.665A1.02 1.02 0 0 0 5.29 5.73a1 1 0 0 0 .259.08c.095.015.19.012.286.024l-.059-.008a1 1 0 0 1 .145.032q.072.03.135.072l.033.022a1 1 0 0 1 .1.102c.034.042-.026-.036-.005-.006l.022.031a1 1 0 0 1 .072.135l-.022-.052q.04.096.053.198l-.008-.058q.015.111 0 .222l.008-.059a.8.8 0 0 1-.053.198l.022-.052a1 1 0 0 1-.072.135l-.022.032a.7.7 0 0 1-.102.1c-.042.034.037-.026.007-.005l-.033.022a1 1 0 0 1-.082.05A1 1 0 0 1 5.776 7l.059-.008a1 1 0 0 1-.223 0L5.671 7a1 1 0 0 1-.199-.054l.053.022a1 1 0 0 1-.135-.072q-.014-.011-.032-.022c-.029-.02.049.04.008.005a.7.7 0 0 1-.108-.107c-.034-.041.026.036.005.007l-.023-.032a1 1 0 0 1-.072-.135l.023.052a1 1 0 0 1-.054-.198l.008.059a1 1 0 0 1-.008-.111c0-.115-.1-.225-.22-.22a.223.223 0 0 0-.218.22c0 .334.166.636.43.833.254.189.613.242.912.14a1.02 1.02 0 0 0 .115-1.901 1 1 0 0 0-.26-.08c-.093-.015-.189-.012-.284-.024l.059.008a1 1 0 0 1-.146-.032 1 1 0 0 1-.135-.072q-.014-.012-.032-.022c-.029-.021.049.039.008.005a.7.7 0 0 1-.108-.108c-.034-.041.026.037.005.007l-.023-.031A1 1 0 0 1 5.168 5l.023.053a1 1 0 0 1-.054-.198l.008.058a1 1 0 0 1-.008-.163 1 1 0 0 1 .054-.199l-.023.053a1 1 0 0 1 .072-.135l.023-.032a.7.7 0 0 1 .103-.1c.04-.034-.037.026-.008.005l.032-.022a1 1 0 0 1 .082-.05.8.8 0 0 1 .199-.054l-.06.008a1 1 0 0 1 .224 0l-.059-.008q.103.015.198.054l-.053-.022q.072.03.135.072l.033.022a1 1 0 0 1 .1.103c.034.04-.026-.037-.005-.008l.022.032a1 1 0 0 1 .05.082.8.8 0 0 1 .053.199l-.008-.059a1 1 0 0 1 .008.111c0 .115.101.225.22.22a.223.223 0 0 0 .218-.22Z"/><path fill="currentColor" stroke="currentColor" stroke-linejoin="round" stroke-width=".5" d="M5.942 3.995v-.693c0-.115-.1-.225-.22-.22a.223.223 0 0 0-.218.22v.693c0 .115.1.225.218.22a.223.223 0 0 0 .22-.22Zm0 3.915v-.694c0-.115-.1-.225-.22-.22a.223.223 0 0 0-.218.22v.693c0 .115.1.225.218.22a.223.223 0 0 0 .22-.22Z"/></svg>