<svg fill="none" viewBox="0 0 22 20"><path fill="currentColor" stroke="currentColor" stroke-width=".3" d="M1.953 9.86a.2.2 0 0 0 0 .28 18.7 18.7 0 0 0 2.458 2.158c1.544 1.129 3.942 2.475 6.59 2.475 2.646 0 5.044-1.346 6.589-2.475a18.5 18.5 0 0 0 2.457-2.158.2.2 0 0 0 0-.28 18.5 18.5 0 0 0-2.457-2.158C16.045 6.574 13.647 5.228 11 5.228S5.955 6.574 4.41 7.702a18.5 18.5 0 0 0-2.457 2.159ZM11 15.43c-1.258 0-2.563-.277-3.88-.824a15.2 15.2 0 0 1-3.13-1.793c-1.753-1.284-2.832-2.55-2.876-2.604l-.066-.077a.2.2 0 0 1 0-.262l.066-.077c.044-.053 1.123-1.32 2.877-2.604a15.2 15.2 0 0 1 3.13-1.793c1.316-.546 2.62-.823 3.88-.823 1.258 0 2.562.277 3.878.823a15.2 15.2 0 0 1 3.13 1.793c1.755 1.284 2.833 2.55 2.878 2.604l.065.077a.2.2 0 0 1 0 .262l-.066.077c-.044.053-1.122 1.32-2.876 2.604a15.2 15.2 0 0 1-3.13 1.793c-1.317.547-2.622.824-3.88.824Z"/><circle cx="11" cy="10" r="2.75" fill="currentColor"/></svg>